{
  "accessors": [
    {
      "bufferView": 1,
      "componentType": 5126,
      "count": 56,
      "max": [
        2.8857934474945068,
        0.70000404119491577,
        2.6739389896392822
      ],
      "min": [
        3.9599544834345579e-06,
        4.0332865864911582e-06,
        4.1066191442951094e-06
      ],
      "type": "VEC3"
    },
    {
      "bufferView": 1,
      "byteOffset": 672,
      "componentType": 5126,
      "count": 56,
      "max": [
        0.73564881086349487,
        0.98038172721862793,
        0.48325562477111816
      ],
      "min": [
        -0.73564869165420532,
        -0.98038172721862793,
        -0.71562999486923218
      ],
      "type": "VEC3"
    },
    {
      "bufferView": 0,
      "componentType": 5125,
      "count": 180,
      "max": [
        55
      ],
      "min": [
        1
      ],
      "type": "SCALAR"
    }
  ],
  "asset": {
    "extras": {
      "author": "wpower12 (https://sketchfab.com/wpower12)",
      "license": "CC-BY-NC-4.0 (http://creativecommons.org/licenses/by-nc/4.0/)",
      "source": "https://sketchfab.com/3d-models/heart-7b51e509e37d46b1b1ee07c8abab49ea",
      "title": "Heart"
    },
    "generator": "Sketchfab-6.22.0",
    "version": "2.0"
  },
  "bufferViews": [
    {
      "buffer": 0,
      "byteLength": 720,
      "byteOffset": 0,
      "name": "floatBufferViews",
      "target": 34963
    },
    {
      "buffer": 0,
      "byteLength": 1344,
      "byteOffset": 720,
      "byteStride": 12,
      "name": "floatBufferViews",
      "target": 34962
    }
  ],
  "buffers": [
    {
      "byteLength": 2064,
      "uri": "scene.bin"
    }
  ],
  "materials": [
    {
      "doubleSided": false,
      "emissiveFactor": [
        0,
        0,
        0
      ],
      "name": "Scene_-_Root",
      "pbrMetallicRoughness": {
        "baseColorFactor": [
          0.73253298550000001,
          0.054311811799999998,
          0.40035524610000001,
          1
        ],
        "metallicFactor": 0,
        "roughnessFactor": 0.59999999999999998
      }
    }
  ],
  "meshes": [
    {
      "primitives": [
        {
          "attributes": {
            "NORMAL": 1,
            "POSITION": 0
          },
          "indices": 2,
          "material": 0,
          "mode": 4
        }
      ]
    }
  ],
  "nodes": [
    {
      "children": [
        1
      ],
      "name": "RootNode (gltf orientation matrix)",
      "rotation": [
        -0.70710678118654746,
        -0,
        -0,
        0.70710678118654757
      ]
    },
    {
      "children": [
        2
      ],
      "matrix": [
        -1,
        0,
        -1.2246468525851679e-16,
        0,
        0,
        1,
        0,
        0,
        1.2246468525851679e-16,
        0,
        -1,
        0,
        0,
        0,
        0,
        1
      ],
      "name": "RootNode (model correction matrix)"
    },
    {
      "children": [
        3
      ],
      "name": "e9b36920f64e4829972950f72221c8ac.stl.cleaner"
    },
    {
      "mesh": 0,
      "name": ""
    }
  ],
  "scene": 0,
  "scenes": [
    {
      "name": "OSG_Scene",
      "nodes": [
        0
      ]
    }
  ]
}

